# xmcd
#
# Track frame offsets:
# 150
# 21612
# 42172
# 54743
# 70219
# 127607
# 141324
# 154427
# 179042
# 228585
# 234907
# 253318
# 254508
# 287608
# 288618
# 289447
# 314527
# 315782
# 334848
# 351577
# 354809
#
# Disc length: 4799 seconds
#
# Revision: 0
# Processed by: cddbd v1.5.1PL2 Copyright (c) Steve Scherf et al.
# Submitted via: Audion 3.0.2 (http://www.panic.com/audion/)
#
DISCID=5812bd15
DTITLE=cordz - direct
DYEAR=1900
DGENRE=
TTITLE0=d
TTITLE1=d
TTITLE2=d
TTITLE3=d
TTITLE4=d
TTITLE5=d
TTITLE6=d
TTITLE7=d
TTITLE8=d
TTITLE9=d
TTITLE10=d
TTITLE11=d
TTITLE12=d
TTITLE13=d
TTITLE14=d
TTITLE15=d
TTITLE16=d
TTITLE17=d
TTITLE18=d
TTITLE19=d
TTITLE20=d
EXTD=
EXTT0=
EXTT1=
EXTT2=
EXTT3=
EXTT4=
EXTT5=
EXTT6=
EXTT7=
EXTT8=
EXTT9=
EXTT10=
EXTT11=
EXTT12=
EXTT13=
EXTT14=
EXTT15=
EXTT16=
EXTT17=
EXTT18=
EXTT19=
EXTT20=
PLAYORDER=
